<svg width="14" height="9" viewBox="0 0 14 9" fill="none" xmlns="http://www.w3.org/2000/svg">
<path d="M4.88906 0.172335C5.12812 0.40671 5.12813 0.795772 4.89375 1.03483L2.04844 3.88952H12.8906C13.2234 3.88952 13.4953 4.1614 13.4953 4.4989C13.4953 4.8364 13.2234 5.10827 12.8906 5.10827H2.04844L4.89844 7.96296C5.13281 8.20202 5.12813 8.5864 4.89375 8.82546C4.65469 9.05983 4.275 9.05984 4.03594 8.82077L0.173438 4.93015C0.121875 4.8739 0.0796875 4.81296 0.046875 4.73796C0.0140625 4.66296 0 4.58327 0 4.50359C0 4.34421 0.0609377 4.19421 0.173438 4.07702L4.03594 0.186397C4.26562 -0.0573529 4.65 -0.0620405 4.88906 0.172335Z" fill="black"/>
</svg>
